<svg width="23" height="48" viewBox="0 0 23 48" fill="none" xmlns="http://www.w3.org/2000/svg">
<path d="M7.67964 31.9551L0.683043 24.9613C0.466481 24.7448 0.294698 24.4878 0.177501 24.205C0.0603044 23.9221 -1.11582e-05 23.619 1.54833e-09 23.3128C1.54834e-09 8.8407 9.78707 0.845371 10.2034 0.511419C10.617 0.180373 11.1311 0 11.661 0C12.1909 0 12.705 0.180373 13.1186 0.511419C13.4101 0.744544 20.2901 6.3515 22.5853 16.6262C22.6631 16.9746 22.6599 17.3361 22.5758 17.683C22.4917 18.0299 22.3291 18.3529 22.1005 18.627L11.1196 31.7986C10.9103 32.0445 10.6526 32.2447 10.3626 32.3868C10.0725 32.5289 9.75634 32.6098 9.43367 32.6245C9.111 32.6392 8.78876 32.5873 8.487 32.4721C8.18524 32.357 7.91042 32.181 7.67964 31.9551V31.9551Z" fill="#F8E868"/>
<path d="M0 36.5V24L22.5 17.5V36.5C20.8333 40.1667 16.2 47.4 11 47C5.8 46.6 1.5 39.8333 0 36.5Z" fill="#F6E23D"/>
<path d="M22.5862 16.626C21.8885 13.5192 20.7103 10.5402 19.0943 7.79636C17.4436 11.5231 14.7964 14.7223 11.4439 17.042C8.09141 19.3616 4.16368 20.7117 0.0929965 20.9438C0.0346915 21.7139 1.54834e-09 22.5016 1.54834e-09 23.3129C-1.11582e-05 23.619 0.0603044 23.9222 0.177501 24.205C0.294698 24.4879 0.466481 24.7449 0.683043 24.9614L7.67964 31.9551C7.91038 32.1811 8.18517 32.3571 8.48691 32.4723C8.78865 32.5875 9.11088 32.6394 9.43355 32.6248C9.75622 32.6102 10.0724 32.5294 10.3625 32.3873C10.6526 32.2453 10.9103 32.0451 11.1196 31.7992L22.1005 18.6276C22.3294 18.3535 22.4923 18.0304 22.5765 17.6833C22.6607 17.3363 22.664 16.9745 22.5862 16.626Z" fill="#F6E23D"/>
<path d="M6.99626 18.6503C8.2843 18.6503 9.32846 17.6066 9.32846 16.3191C9.32846 15.0316 8.2843 13.9878 6.99626 13.9878C5.70822 13.9878 4.66406 15.0316 4.66406 16.3191C4.66406 17.6066 5.70822 18.6503 6.99626 18.6503Z" fill="#FCF5BE"/>
<path d="M10.4944 11.6566C12.4264 11.6566 13.9927 10.091 13.9927 8.15969C13.9927 6.22842 12.4264 4.66281 10.4944 4.66281C8.56234 4.66281 6.99609 6.22842 6.99609 8.15969C6.99609 10.091 8.56234 11.6566 10.4944 11.6566Z" fill="#FCF5BE"/>
<path d="M22.5 36.5C19.7 43.3 15 47 11.5 47L8 36.5C12 38.1 19.5 25.8333 22.5 19.5V36.5Z" fill="#F3D224"/>
</svg>
