<svg width="150" height="150" viewBox="0 0 150 150" fill="none" xmlns="http://www.w3.org/2000/svg">
<g clip-path="url(#clip0)">
<path d="M122.337 70.3759H105.626C105.008 70.3759 104.415 70.1303 103.977 69.6931C103.54 69.2559 103.294 68.6629 103.294 68.0446C103.294 66.184 102.678 59.011 104.018 57.7349C114.157 48.0824 126.299 49.3034 126.812 49.3602C127.338 49.4186 127.829 49.6544 128.204 50.0289C128.578 50.4034 128.814 50.8941 128.872 51.4204C128.913 51.7856 129.802 60.4648 124.319 69.2761C124.109 69.6127 123.817 69.8903 123.471 70.0827C123.124 70.2751 122.734 70.376 122.337 70.3759V70.3759Z" fill="#F8E868"/>
<path d="M103.35 59.5577C102.942 62.1929 103.294 66.6374 103.294 68.0446C103.294 68.6629 103.54 69.2559 103.977 69.6931C104.414 70.1303 105.008 70.3759 105.626 70.3759H122.337C122.734 70.3759 123.124 70.2749 123.47 70.0825C123.817 69.8901 124.108 69.6125 124.318 69.2761C127.462 64.2056 129.066 58.3313 128.934 52.3669C123.108 59.9727 112.384 63.0665 103.35 59.5577V59.5577Z" fill="#F6E23D"/>
<path d="M120.676 58.7196C122.608 58.7196 124.174 57.154 124.174 55.2227C124.174 53.2914 122.608 51.7258 120.676 51.7258C118.744 51.7258 117.177 53.2914 117.177 55.2227C117.177 57.154 118.744 58.7196 120.676 58.7196Z" fill="#FCF5BE"/>
<path d="M112.513 58.7196C113.801 58.7196 114.845 57.6759 114.845 56.3884C114.845 55.1009 113.801 54.0571 112.513 54.0571C111.225 54.0571 110.181 55.1009 110.181 56.3884C110.181 57.6759 111.225 58.7196 112.513 58.7196Z" fill="#FCF5BE"/>
<path d="M103.294 85.7846V68.0446C103.294 67.4263 103.54 66.8334 103.977 66.3962C104.415 65.959 105.008 65.7134 105.626 65.7134H122.337C122.75 65.7213 123.154 65.8375 123.507 66.0501C123.861 66.2628 124.153 66.5646 124.353 66.9253C124.554 67.286 124.656 67.693 124.65 68.1056C124.643 68.5182 124.529 68.9219 124.317 69.2764C121.232 74.2338 111.647 83.0652 107.275 87.4331C105.849 88.858 103.269 87.8096 103.294 85.7846V85.7846Z" fill="#49AD4D"/>
<path d="M90.2743 87.9432C85.7472 83.4179 85.7636 75.9299 90.2743 71.4589L103.467 58.2713C104.865 56.6446 107.977 56.8142 107.956 59.4241V85.7856C107.956 86.0917 107.896 86.3949 107.779 86.6777C107.661 86.9606 107.49 87.2176 107.273 87.4341C102.422 92.2848 95.1833 92.8504 90.2743 87.9432V87.9432Z" fill="#81C784"/>
<path d="M91.5233 79.7009C89.9637 79.7017 88.4101 79.5074 86.8988 79.1224C86.8149 80.7467 87.0719 82.3705 87.6533 83.8896C88.2346 85.4087 89.1274 86.7894 90.2744 87.943C95.1834 92.8503 102.422 92.285 107.276 87.4331C107.492 87.2166 107.664 86.9596 107.781 86.6767C107.898 86.3939 107.959 86.0907 107.959 85.7846V69.8828C106.362 72.8512 103.991 75.3317 101.097 77.0605C98.2033 78.7893 94.8947 79.7018 91.5233 79.7009V79.7009Z" fill="#66BB6A"/>
<path d="M72.8656 83.4668C56.8181 68.1714 38.266 61.4493 22.3097 75.6279C20.5914 77.1546 22.045 80.1614 24.3649 79.6461C47.9537 74.4049 59.7648 91.0658 72.8656 107.676V83.4668Z" fill="#66BB6A"/>
<path d="M65.4959 77.2087C64.933 79.6946 63.7527 81.9988 62.0642 83.9086C60.3756 85.8184 58.2331 87.2724 55.8342 88.1365C61.949 93.5313 67.2912 100.609 72.8657 107.676V83.4667C70.5366 81.2351 68.0756 79.1454 65.4959 77.2087V77.2087Z" fill="#49AD4D"/>
<path d="M128.085 89.6149C109.856 73.415 91.7856 82.3752 77.53 97.2325V119.335C77.53 119.335 88.8447 107.841 92.6756 104.069C100.852 96.0197 113.89 90.9364 126.03 93.6331C128.311 94.1395 129.822 91.1585 128.085 89.6149V89.6149Z" fill="#81C784"/>
<path d="M128.085 89.6149C122.8 84.9183 117.529 82.3399 112.36 81.4033C111.822 86.4668 109.845 91.2705 106.664 95.2472C112.789 92.9742 119.537 92.1909 126.03 93.6331C128.311 94.1395 129.822 91.1584 128.085 89.6149V89.6149Z" fill="#66BB6A"/>
<path d="M71.2165 32.3931L64.2199 25.3993C64.0033 25.1828 63.8316 24.9258 63.7144 24.643C63.5972 24.3601 63.5369 24.057 63.5369 23.7508C63.5369 9.27868 73.3239 1.28336 73.7402 0.949407C74.1539 0.618362 74.668 0.437988 75.1979 0.437988C75.7277 0.437988 76.2418 0.618362 76.6555 0.949407C76.947 1.18253 83.827 6.78949 86.1222 17.0642C86.2 17.4125 86.1967 17.7741 86.1127 18.121C86.0286 18.4679 85.866 18.7908 85.6374 19.065L74.6565 32.2366C74.4472 32.4825 74.1895 32.6827 73.8994 32.8248C73.6094 32.9669 73.2932 33.0478 72.9705 33.0625C72.6479 33.0771 72.3256 33.0253 72.0239 32.9101C71.7221 32.795 71.4473 32.619 71.2165 32.3931V32.3931Z" fill="#F8E868"/>
<path d="M86.123 17.064C85.4253 13.9572 84.2472 10.9782 82.6312 8.23438C80.9805 11.9611 78.3332 15.1603 74.9808 17.48C71.6283 19.7996 67.7005 21.1498 63.6299 21.3818C63.5716 22.152 63.5369 22.9396 63.5369 23.7509C63.5369 24.0571 63.5972 24.3602 63.7144 24.6431C63.8316 24.9259 64.0033 25.1829 64.2199 25.3994L71.2165 32.3932C71.4472 32.6191 71.722 32.7951 72.0238 32.9103C72.3255 33.0256 72.6477 33.0775 72.9704 33.0628C73.2931 33.0482 73.6093 32.9674 73.8994 32.8253C74.1894 32.6833 74.4472 32.4831 74.6565 32.2372L85.6374 19.0657C85.8663 18.7915 86.0291 18.4684 86.1133 18.1214C86.1976 17.7743 86.2009 17.4125 86.123 17.064V17.064Z" fill="#F6E23D"/>
<path d="M70.5335 19.0883C71.8215 19.0883 72.8657 18.0446 72.8657 16.757C72.8657 15.4695 71.8215 14.4258 70.5335 14.4258C69.2455 14.4258 68.2013 15.4695 68.2013 16.757C68.2013 18.0446 69.2455 19.0883 70.5335 19.0883Z" fill="#FCF5BE"/>
<path d="M51.8759 79.7008C53.1639 79.7008 54.2081 78.6571 54.2081 77.3696C54.2081 76.0821 53.1639 75.0383 51.8759 75.0383C50.5879 75.0383 49.5437 76.0821 49.5437 77.3696C49.5437 78.6571 50.5879 79.7008 51.8759 79.7008Z" fill="#C8E6C9"/>
<path d="M82.8775 44.0495L71.2165 32.3932C70.8049 31.9818 70.5621 31.4315 70.5357 30.8503C70.5093 30.2691 70.7013 29.6991 71.074 29.2521L82.0551 16.0806C83.2399 14.6261 85.7071 15.2034 86.1231 17.0646C86.6124 19.2598 86.8591 21.502 86.8589 23.751V42.401C86.8784 44.4117 84.2899 45.4855 82.8775 44.0495Z" fill="#49AD4D"/>
<path d="M75.1979 54.0572C72.1063 54.0537 69.1423 52.8245 66.9562 50.6393C64.7701 48.4541 63.5404 45.4913 63.5369 42.4009V23.7509C63.5121 21.6927 66.095 20.6526 67.5183 22.1024C69.6161 24.2399 86.8589 40.0224 86.8589 42.4009C86.8554 45.4913 85.6258 48.4541 83.4396 50.6393C81.2535 52.8245 78.2895 54.0537 75.1979 54.0572V54.0572Z" fill="#81C784"/>
<path d="M75.2524 29.5051C71.7918 31.8386 67.7112 33.0823 63.5369 33.0757V42.4007C63.5369 45.4922 64.7654 48.457 66.9523 50.643C69.1391 52.8289 72.1052 54.057 75.1979 54.057C78.2905 54.057 81.2566 52.8289 83.4434 50.643C85.6303 48.457 86.8588 45.4922 86.8588 42.4007C86.8588 40.9755 80.6669 34.7367 75.2524 29.5051Z" fill="#66BB6A"/>
<path d="M79.8622 128.657H70.5334V74.8786C70.5334 63.2806 64.3479 52.475 54.1914 46.8663C48.5385 43.7447 42.6345 42.3676 36.3286 44.5986C34.1547 45.3673 32.3347 42.7167 33.7171 40.9598C38.5319 34.8385 43.9887 31.7341 49.9337 31.7341H49.9381C57.8148 31.7365 66.0734 37.0401 75.129 47.9302C79.5153 42.3798 88.9115 32.4361 100.082 32.1494C106.367 31.992 111.952 34.9521 116.678 40.9598C118.069 42.7283 116.224 45.3382 114.088 44.6059C108.418 42.6616 103.152 43.4694 98.1496 45.7895C86.9072 51.0002 79.8622 62.4292 79.8622 74.816V128.657Z" fill="#81C784"/>
<path d="M74.0317 12.0946C75.9638 12.0946 77.53 10.529 77.53 8.59771C77.53 6.66644 75.9638 5.10083 74.0317 5.10083C72.0997 5.10083 70.5334 6.66644 70.5334 8.59771C70.5334 10.529 72.0997 12.0946 74.0317 12.0946Z" fill="#FCF5BE"/>
<path d="M43.7131 77.3695C45.6452 77.3695 47.2114 75.8039 47.2114 73.8726C47.2114 71.9413 45.6452 70.3757 43.7131 70.3757C41.7811 70.3757 40.2148 71.9413 40.2148 73.8726C40.2148 75.8039 41.7811 77.3695 43.7131 77.3695Z" fill="#C8E6C9"/>
<path d="M56.5402 42.4008C57.8282 42.4008 58.8724 41.357 58.8724 40.0695C58.8724 38.782 57.8282 37.7383 56.5402 37.7383C55.2522 37.7383 54.208 38.782 54.208 40.0695C54.208 41.357 55.2522 42.4008 56.5402 42.4008Z" fill="#C8E6C9"/>
<path d="M91.5232 100.682C92.8113 100.682 93.8554 99.6383 93.8554 98.3508C93.8554 97.0633 92.8113 96.0195 91.5232 96.0195C90.2352 96.0195 89.191 97.0633 89.191 98.3508C89.191 99.6383 90.2352 100.682 91.5232 100.682Z" fill="#C8E6C9"/>
<path d="M48.3776 42.4007C50.3096 42.4007 51.8759 40.8351 51.8759 38.9039C51.8759 36.9726 50.3096 35.407 48.3776 35.407C46.4455 35.407 44.8793 36.9726 44.8793 38.9039C44.8793 40.8351 46.4455 42.4007 48.3776 42.4007Z" fill="#C8E6C9"/>
<path d="M97.3538 93.6883C99.2858 93.6883 100.852 92.1227 100.852 90.1915C100.852 88.2602 99.2858 86.6946 97.3538 86.6946C95.4217 86.6946 93.8555 88.2602 93.8555 90.1915C93.8555 92.1227 95.4217 93.6883 97.3538 93.6883Z" fill="#C8E6C9"/>
<path d="M116.678 40.9599C111.952 34.9523 106.367 31.9922 100.082 32.1495C94.2108 32.3002 88.831 35.1198 84.41 38.5663C83.9909 44.018 82.446 49.3236 79.8728 54.1486C77.2996 58.9735 73.7539 63.213 69.4595 66.5996C70.172 69.3017 70.533 72.0844 70.5335 74.8788V128.657H79.8622V74.8161C79.8622 62.4293 86.9072 51.0003 98.1496 45.7897C103.152 43.471 108.418 42.6617 114.088 44.606C116.224 45.3383 118.069 42.7284 116.678 40.9599V40.9599Z" fill="#66BB6A"/>
<path d="M88.4071 126.326C88.152 126.326 84.5266 121.664 75.1978 121.664C65.869 121.664 62.2436 126.326 61.9885 126.326C50.4147 126.326 40.2148 135.739 40.2148 147.307H110.181C110.181 135.739 99.9809 126.326 88.4071 126.326V126.326Z" fill="#A1887F"/>
<path d="M71.4199 147.307H110.181C110.181 136.044 100.513 126.829 89.3222 126.349C86.139 135.3 79.7647 142.762 71.4199 147.307V147.307Z" fill="#9C7B70"/>
<path d="M71.622 132.163C73.4989 134.503 77.1193 131.563 75.2617 129.246C73.1091 126.554 70.3255 124.433 67.1573 123.073C63.6762 124.445 62.1507 126.326 61.9886 126.326C61.9621 126.326 61.9358 126.328 61.9093 126.328C65.7422 127.045 69.1894 129.116 71.622 132.163V132.163Z" fill="#876559"/>
<path d="M91.5232 140.313H84.5267C83.9081 140.313 83.3149 140.068 82.8775 139.631C82.4402 139.193 82.1945 138.6 82.1945 137.982C82.1945 137.364 82.4402 136.771 82.8775 136.334C83.3149 135.896 83.9081 135.651 84.5267 135.651H91.5232C92.1418 135.651 92.735 135.896 93.1724 136.334C93.6097 136.771 93.8554 137.364 93.8554 137.982C93.8554 138.6 93.6097 139.193 93.1724 139.631C92.735 140.068 92.1418 140.313 91.5232 140.313Z" fill="#876559"/>
<path d="M65.8691 140.313H58.8725C58.2539 140.313 57.6607 140.068 57.2234 139.631C56.786 139.193 56.5403 138.6 56.5403 137.982C56.5403 137.364 56.786 136.771 57.2234 136.334C57.6607 135.896 58.2539 135.651 58.8725 135.651H65.8691C66.4876 135.651 67.0808 135.896 67.5182 136.334C67.9556 136.771 68.2013 137.364 68.2013 137.982C68.2013 138.6 67.9556 139.193 67.5182 139.631C67.0808 140.068 66.4876 140.313 65.8691 140.313Z" fill="#876559"/>
<path d="M147.496 149.639H2.8997C2.28117 149.639 1.68796 149.393 1.25059 148.956C0.813218 148.519 0.567505 147.926 0.567505 147.307C0.567505 146.689 0.813218 146.096 1.25059 145.659C1.68796 145.222 2.28117 144.976 2.8997 144.976H147.496C148.115 144.976 148.708 145.222 149.145 145.659C149.582 146.096 149.828 146.689 149.828 147.307C149.828 147.926 149.582 148.519 149.145 148.956C148.708 149.393 148.115 149.639 147.496 149.639Z" fill="#876559"/>
</g>
<defs>
<clipPath id="clip0">
<rect x="0.567505" y="0.438232" width="149.261" height="149.2" fill="white"/>
</clipPath>
</defs>
</svg>
