<svg width="150" height="135" viewBox="0 0 150 135" fill="none" xmlns="http://www.w3.org/2000/svg">
<path d="M102.727 70.5233V52.7833C102.727 52.165 102.972 51.5721 103.41 51.1349C103.847 50.6977 104.44 50.4521 105.059 50.4521H121.77C122.183 50.46 122.586 50.5761 122.94 50.7888C123.294 51.0015 123.585 51.3033 123.786 51.664C123.986 52.0247 124.088 52.4317 124.082 52.8443C124.076 53.2569 123.961 53.6606 123.75 54.0151C120.664 58.9725 111.08 67.8038 106.707 72.1717C105.282 73.5967 102.702 72.5482 102.727 70.5233V70.5233Z" fill="#49AD4D"/>
<path d="M89.7066 72.6817C85.1795 68.1564 85.1958 60.6684 89.7066 56.1974L102.899 43.0098C104.297 41.3831 107.409 41.5527 107.388 44.1626V70.5241C107.388 70.8303 107.328 71.1334 107.211 71.4163C107.094 71.6991 106.922 71.9561 106.705 72.1726C101.854 77.0234 94.6156 77.589 89.7066 72.6817V72.6817Z" fill="#81C784"/>
<path d="M90.9554 64.4396C89.3958 64.4404 87.8422 64.2461 86.3309 63.8611C86.2471 65.4854 86.5041 67.1092 87.0854 68.6283C87.6667 70.1474 88.5596 71.5281 89.7065 72.6817C94.6155 77.589 101.854 77.0237 106.708 72.1717C106.924 71.9553 107.096 71.6983 107.213 71.4154C107.33 71.1326 107.391 70.8294 107.391 70.5233V54.6215C105.795 57.5899 103.423 60.0704 100.529 61.7992C97.6354 63.528 94.3268 64.4405 90.9554 64.4396V64.4396Z" fill="#66BB6A"/>
<path d="M72.2986 68.2054C56.2511 52.91 37.699 46.1879 21.7427 60.3666C20.0244 61.8932 21.478 64.9 23.7979 64.3848C47.3867 59.1435 59.1978 75.8044 72.2986 92.4146V68.2054Z" fill="#66BB6A"/>
<path d="M64.9283 61.9474C64.3653 64.4333 63.1851 66.7374 61.4965 68.6473C59.808 70.5571 57.6654 72.0111 55.2666 72.8751C61.3813 78.2699 66.7235 85.3473 72.2981 92.4148V68.2053C69.969 65.9738 67.508 63.884 64.9283 61.9474V61.9474Z" fill="#49AD4D"/>
<path d="M127.518 74.3535C109.289 58.1536 91.2185 67.1137 76.9629 81.9711V104.073C76.9629 104.073 88.2776 92.5792 92.1085 88.8078C100.285 80.7583 113.322 75.675 125.463 78.3717C127.744 78.8781 129.255 75.897 127.518 74.3535V74.3535Z" fill="#81C784"/>
<path d="M127.517 74.3534C122.232 69.6568 116.961 67.0785 111.792 66.1419C111.254 71.2054 109.277 76.0091 106.096 79.9858C112.221 77.7128 118.969 76.9295 125.462 78.3717C127.743 78.8781 129.254 75.897 127.517 74.3534V74.3534Z" fill="#66BB6A"/>
<path d="M51.3088 64.4395C52.5968 64.4395 53.641 63.3958 53.641 62.1083C53.641 60.8207 52.5968 59.777 51.3088 59.777C50.0207 59.777 48.9766 60.8207 48.9766 62.1083C48.9766 63.3958 50.0207 64.4395 51.3088 64.4395Z" fill="#C8E6C9"/>
<path d="M82.31 28.788L70.649 17.1317C70.2374 16.7204 69.9946 16.17 69.9682 15.5888C69.9418 15.0076 70.1338 14.4376 70.5065 13.9907L81.4876 0.819076C82.6724 -0.635335 85.1396 -0.0580587 85.5556 1.80316C86.0449 3.9983 86.2916 6.24051 86.2914 8.48948V27.1395C86.3109 29.1502 83.7224 30.224 82.31 28.788Z" fill="#49AD4D"/>
<path d="M74.6299 38.7958C71.5383 38.7923 68.5743 37.5631 66.3882 35.3779C64.2021 33.1927 62.9724 30.2299 62.9689 27.1395V8.48949C62.9441 6.43128 65.5271 5.39125 66.9503 6.841C69.0481 8.97847 86.2909 24.7611 86.2909 27.1395C86.2874 30.2299 85.0578 33.1927 82.8717 35.3779C80.6856 37.5631 77.7215 38.7923 74.6299 38.7958V38.7958Z" fill="#81C784"/>
<path d="M74.6852 14.2438C71.2247 16.5773 67.1441 17.821 62.9697 17.8144V27.1394C62.9697 30.2309 64.1983 33.1957 66.3852 35.3816C68.572 37.5676 71.538 38.7957 74.6307 38.7957C77.7234 38.7957 80.6894 37.5676 82.8763 35.3816C85.0632 33.1957 86.2917 30.2309 86.2917 27.1394C86.2917 25.7141 80.0997 19.4754 74.6852 14.2438Z" fill="#66BB6A"/>
<path d="M79.2945 113.396H69.9657V59.6173C69.9657 48.0194 63.7801 37.2137 53.6237 31.605C47.9707 28.4835 42.0668 27.1063 35.7608 29.3373C33.5869 30.106 31.7669 27.4554 33.1493 25.6985C37.9642 19.5772 43.4209 16.4728 49.366 16.4728H49.3704C57.2471 16.4752 65.5057 21.7788 74.5613 32.6689C78.9476 27.1185 88.3437 17.1748 99.5144 16.8881C105.8 16.7307 111.385 19.6908 116.111 25.6985C117.502 27.467 115.656 30.0769 113.521 29.3446C107.85 27.4003 102.584 28.2081 97.5819 30.5283C86.3395 35.7389 79.2945 47.1679 79.2945 59.5547V113.396Z" fill="#81C784"/>
<path d="M43.1458 62.1083C45.0778 62.1083 46.6441 60.5427 46.6441 58.6114C46.6441 56.6801 45.0778 55.1145 43.1458 55.1145C41.2137 55.1145 39.6475 56.6801 39.6475 58.6114C39.6475 60.5427 41.2137 62.1083 43.1458 62.1083Z" fill="#C8E6C9"/>
<path d="M55.9728 27.1395C57.2609 27.1395 58.305 26.0958 58.305 24.8082C58.305 23.5207 57.2609 22.477 55.9728 22.477C54.6848 22.477 53.6406 23.5207 53.6406 24.8082C53.6406 26.0958 54.6848 27.1395 55.9728 27.1395Z" fill="#C8E6C9"/>
<path d="M90.9562 85.4208C92.2443 85.4208 93.2884 84.3771 93.2884 83.0896C93.2884 81.802 92.2443 80.7583 90.9562 80.7583C89.6682 80.7583 88.624 81.802 88.624 83.0896C88.624 84.3771 89.6682 85.4208 90.9562 85.4208Z" fill="#C8E6C9"/>
<path d="M47.8098 27.1395C49.7419 27.1395 51.3081 25.5739 51.3081 23.6426C51.3081 21.7113 49.7419 20.1457 47.8098 20.1457C45.8778 20.1457 44.3115 21.7113 44.3115 23.6426C44.3115 25.5739 45.8778 27.1395 47.8098 27.1395Z" fill="#C8E6C9"/>
<path d="M96.7864 78.427C98.7184 78.427 100.285 76.8614 100.285 74.9302C100.285 72.9989 98.7184 71.4333 96.7864 71.4333C94.8543 71.4333 93.2881 72.9989 93.2881 74.9302C93.2881 76.8614 94.8543 78.427 96.7864 78.427Z" fill="#C8E6C9"/>
<path d="M116.11 25.6985C111.385 19.6908 105.8 16.7307 99.5143 16.8881C93.6429 17.0387 88.2631 19.8584 83.8422 23.3048C83.423 28.7565 81.8781 34.0622 79.3049 38.8871C76.7317 43.7121 73.186 47.9516 68.8916 51.3382C69.6042 54.0403 69.9651 56.8229 69.9656 59.6173V113.396H79.2944V59.5547C79.2944 47.1678 86.3394 35.7389 97.5817 30.5282C102.584 28.2095 107.85 27.4003 113.521 29.3445C115.656 30.0768 117.502 27.467 116.11 25.6985V25.6985Z" fill="#66BB6A"/>
<path d="M87.8397 111.065C87.5846 111.065 83.9592 106.402 74.6304 106.402C65.3017 106.402 61.6762 111.065 61.4212 111.065C49.8473 111.065 39.6475 120.477 39.6475 132.046H109.613C109.613 120.477 99.4136 111.065 87.8397 111.065V111.065Z" fill="#A1887F"/>
<path d="M70.8525 132.046H109.613C109.613 120.783 99.9456 111.568 88.7548 111.088C85.5716 120.038 79.1973 127.501 70.8525 132.046V132.046Z" fill="#9C7B70"/>
<path d="M71.0545 116.901C72.9314 119.241 76.5518 116.301 74.6942 113.985C72.5416 111.292 69.758 109.172 66.5898 107.811C63.1087 109.184 61.5832 111.065 61.4211 111.065C61.3946 111.065 61.3683 111.067 61.3418 111.067C65.1747 111.784 68.6219 113.855 71.0545 116.901V116.901Z" fill="#876559"/>
<path d="M90.9557 125.052H83.9592C83.3406 125.052 82.7474 124.806 82.31 124.369C81.8727 123.932 81.627 123.339 81.627 122.721C81.627 122.103 81.8727 121.51 82.31 121.072C82.7474 120.635 83.3406 120.39 83.9592 120.39H90.9557C91.5743 120.39 92.1675 120.635 92.6049 121.072C93.0422 121.51 93.2879 122.103 93.2879 122.721C93.2879 123.339 93.0422 123.932 92.6049 124.369C92.1675 124.806 91.5743 125.052 90.9557 125.052Z" fill="#876559"/>
<path d="M65.3015 125.052H58.3049C57.6863 125.052 57.0931 124.806 56.6557 124.369C56.2184 123.932 55.9727 123.339 55.9727 122.721C55.9727 122.103 56.2184 121.51 56.6557 121.072C57.0931 120.635 57.6863 120.39 58.3049 120.39H65.3015C65.92 120.39 66.5132 120.635 66.9506 121.072C67.3879 121.51 67.6337 122.103 67.6337 122.721C67.6337 123.339 67.3879 123.932 66.9506 124.369C66.5132 124.806 65.92 125.052 65.3015 125.052Z" fill="#876559"/>
<path d="M146.929 134.377H2.3322C1.71366 134.377 1.12046 134.132 0.683085 133.694C0.245713 133.257 0 132.664 0 132.046C0 131.428 0.245713 130.835 0.683085 130.397C1.12046 129.96 1.71366 129.715 2.3322 129.715H146.929C147.547 129.715 148.14 129.96 148.578 130.397C149.015 130.835 149.261 131.428 149.261 132.046C149.261 132.664 149.015 133.257 148.578 133.694C148.14 134.132 147.547 134.377 146.929 134.377Z" fill="#876559"/>
</svg>
