<svg width="369" height="237" viewBox="0 0 369 237" fill="none" xmlns="http://www.w3.org/2000/svg">
<path d="M184.113 236.598C285.796 236.598 368.226 201.285 368.226 157.724C368.226 114.164 285.796 78.8506 184.113 78.8506C82.4302 78.8506 0 114.164 0 157.724C0 201.285 82.4302 236.598 184.113 236.598Z" fill="#7F8FA0"/>
<path d="M184.113 213.408C91.4763 213.408 15.0381 184.069 2.1321 145.915C0.756179 149.774 0 153.721 0 157.747C0 201.308 82.4301 236.621 184.113 236.621C285.796 236.621 368.226 201.308 368.226 157.747C368.226 153.72 367.47 149.774 366.094 145.915C353.189 184.068 276.75 213.408 184.113 213.408Z" fill="#738394"/>
<path d="M79.7044 92.8154C79.2457 96.9694 78.9572 101.163 79.023 105.424C79.0838 109.378 81.1107 113.117 84.285 115.478C106.924 132.32 132.314 144.603 184.114 144.603C235.914 144.603 261.304 132.32 283.943 115.478C287.116 113.118 289.143 109.379 289.203 105.426C289.268 101.166 288.978 96.9719 288.517 92.8146C258.838 84.0399 222.901 78.8745 184.113 78.8745C145.323 78.8737 109.384 84.0399 79.7044 92.8154Z" fill="#A6B5C8"/>
<path d="M284.681 114.617C271.875 104.902 231.91 97.7705 184.114 97.7705C136.318 97.7705 96.3526 104.902 83.5469 114.617C83.8329 114.872 83.9759 115.248 84.285 115.478C106.923 132.32 132.314 144.602 184.114 144.602C235.914 144.602 261.304 132.319 283.943 115.478C284.252 115.248 284.395 114.871 284.681 114.617Z" fill="#7F8FA0"/>
<path d="M284.681 114.617C271.875 104.902 231.91 97.7705 184.114 97.7705C136.318 97.7705 96.3526 104.902 83.5469 114.617C83.8329 114.872 83.9759 115.248 84.285 115.478C106.923 132.32 132.314 144.602 184.114 144.602C235.914 144.602 261.304 132.319 283.943 115.478C284.252 115.248 284.395 114.871 284.681 114.617Z" fill="#8D9DAE"/>
<path d="M184.113 78.8736C222.9 78.8736 258.837 84.039 288.516 92.8137C282.875 41.9016 239.001 0 184.113 0C129.429 0 85.345 41.7357 79.7041 92.8154C109.383 84.0399 145.323 78.8736 184.113 78.8736Z" fill="#CDDCF0"/>
<path d="M184.112 144.602C198.932 144.602 211.405 143.501 222.455 141.671C227.182 130.451 230.141 117.58 230.141 104.343C230.141 78.9762 209.489 58.3335 184.112 58.3335C158.735 58.3335 138.084 78.9762 138.084 104.343C138.084 117.579 141.041 130.45 145.769 141.671C156.819 143.501 169.293 144.602 184.112 144.602Z" fill="#ACC6B9"/>
<path d="M184.113 157.747C169.587 157.747 157.812 169.517 157.812 184.038C157.812 198.559 169.587 210.33 184.113 210.33C198.639 210.33 210.415 198.559 210.415 184.038C210.415 169.517 198.64 157.747 184.113 157.747Z" fill="#A6B5C8"/>
<path d="M65.755 138.029C51.229 138.029 39.4531 149.799 39.4531 164.32C39.4531 178.841 51.229 190.611 65.755 190.611C80.281 190.611 92.0569 178.841 92.0569 164.32C92.0569 149.799 80.2818 138.029 65.755 138.029Z" fill="#A6B5C8"/>
<path d="M302.472 138.029C287.946 138.029 276.17 149.799 276.17 164.32C276.17 178.841 287.946 190.611 302.472 190.611C316.998 190.611 328.774 178.841 328.774 164.32C328.774 149.799 316.999 138.029 302.472 138.029Z" fill="#A6B5C8"/>
<path d="M167.01 107.415C159.166 102.617 150.862 101.906 148.462 105.826C146.062 109.746 150.475 116.813 158.319 121.611C166.163 126.409 174.467 127.121 176.867 123.201C179.267 119.281 174.854 112.214 167.01 107.415Z" fill="black"/>
<path d="M219.691 105.847C217.291 101.927 208.988 102.638 201.144 107.435C193.301 112.232 188.888 119.298 191.287 123.218C193.687 127.139 201.99 126.428 209.834 121.631C217.677 116.834 222.09 109.767 219.691 105.847Z" fill="black"/>
<path d="M180.439 58.705C177.639 47.1927 167.33 38.6152 154.951 38.6152C140.425 38.6152 128.649 50.3855 128.649 64.9064C128.649 74.4625 133.8 82.7467 141.429 87.3493C147.775 71.4883 162.696 60.1379 180.439 58.705Z" fill="#DCE7F6"/>
<path d="M181.253 64.9065C181.253 62.7589 180.924 60.7032 180.438 58.7051C162.696 60.1379 147.775 71.4875 141.429 87.3493C145.392 89.7402 149.985 91.1969 154.951 91.1969C169.477 91.1977 181.253 79.4267 181.253 64.9065Z" fill="#ACC6B9"/>
<path d="M181.253 64.9065C181.253 62.7589 180.924 60.7032 180.438 58.7051C162.696 60.1379 147.775 71.4875 141.429 87.3493C145.392 89.7402 149.985 91.1969 154.951 91.1969C169.477 91.1977 181.253 79.4267 181.253 64.9065Z" fill="#C5D8D0"/>
<path d="M184.113 170.893C191.364 170.893 197.264 176.79 197.264 184.038C197.264 191.287 191.364 197.184 184.113 197.184C176.862 197.184 170.962 191.287 170.962 184.038C170.962 176.79 176.862 170.893 184.113 170.893Z" fill="#5886C5"/>
<path d="M65.7545 151.174C73.0056 151.174 78.9054 157.072 78.9054 164.32C78.9054 171.568 73.0056 177.465 65.7545 177.465C58.5034 177.465 52.6035 171.568 52.6035 164.32C52.6035 157.072 58.5034 151.174 65.7545 151.174Z" fill="#EE6058"/>
<path d="M302.471 151.174C309.722 151.174 315.622 157.072 315.622 164.32C315.622 171.568 309.722 177.465 302.471 177.465C295.22 177.465 289.32 171.568 289.32 164.32C289.32 157.072 295.22 151.174 302.471 151.174Z" fill="#EB7A25"/>
</svg>
