<svg width="369" height="478" viewBox="0 0 369 478" fill="none" xmlns="http://www.w3.org/2000/svg">
<path d="M183.5 399.5C203.46 399.5 260.006 394 271.5 439.5L214.798 219L196.5 231.5C181.073 238.696 190.63 234 173.5 234L154.492 219L102 439.5C102 439.5 136.282 408.045 146.5 403.5C156.718 398.955 163.138 399.5 183.5 399.5Z" fill="#DEEFDD"/>
<path d="M184.16 236.598C285.843 236.598 368.273 201.285 368.273 157.724C368.273 114.164 285.843 78.8506 184.16 78.8506C82.4771 78.8506 0.046875 114.164 0.046875 157.724C0.046875 201.285 82.4771 236.598 184.16 236.598Z" fill="#7F8FA0"/>
<path d="M184.159 213.408C91.5226 213.408 15.0845 184.069 2.17848 145.915C0.802566 149.774 0.0463867 153.721 0.0463867 157.747C0.0463867 201.308 82.4764 236.621 184.159 236.621C285.842 236.621 368.273 201.308 368.273 157.747C368.273 153.72 367.516 149.774 366.14 145.915C353.235 184.068 276.796 213.408 184.159 213.408Z" fill="#738394"/>
<path d="M79.7507 92.8154C79.2921 96.9694 79.0036 101.163 79.0694 105.424C79.1302 109.378 81.1571 113.117 84.3314 115.478C106.97 132.32 132.36 144.603 184.16 144.603C235.96 144.603 261.35 132.32 283.99 115.478C287.162 113.118 289.189 109.379 289.249 105.426C289.314 101.166 289.024 96.9719 288.563 92.8146C258.885 84.0399 222.947 78.8745 184.159 78.8745C145.37 78.8737 109.43 84.0399 79.7507 92.8154Z" fill="#A6B5C8"/>
<path d="M284.727 114.617C271.921 104.902 231.956 97.7705 184.16 97.7705C136.365 97.7705 96.399 104.902 83.5933 114.617C83.8793 114.872 84.0223 115.248 84.3314 115.478C106.97 132.32 132.36 144.602 184.16 144.602C235.96 144.602 261.35 132.319 283.99 115.478C284.298 115.248 284.441 114.871 284.727 114.617Z" fill="#7F8FA0"/>
<path d="M284.727 114.617C271.921 104.902 231.956 97.7705 184.16 97.7705C136.365 97.7705 96.399 104.902 83.5933 114.617C83.8793 114.872 84.0223 115.248 84.3314 115.478C106.97 132.32 132.36 144.602 184.16 144.602C235.96 144.602 261.35 132.319 283.99 115.478C284.298 115.248 284.441 114.871 284.727 114.617Z" fill="#8D9DAE"/>
<path d="M184.159 78.8736C222.946 78.8736 258.883 84.039 288.563 92.8137C282.922 41.9016 239.047 0 184.159 0C129.476 0 85.3914 41.7357 79.7505 92.8154C109.43 84.0399 145.37 78.8736 184.159 78.8736Z" fill="#CDDCF0"/>
<path d="M184.159 144.602C198.979 144.602 211.452 143.501 222.502 141.671C227.229 130.451 230.187 117.58 230.187 104.343C230.187 78.9762 209.536 58.3335 184.159 58.3335C158.782 58.3335 138.131 78.9762 138.131 104.343C138.131 117.579 141.088 130.45 145.816 141.671C156.866 143.501 169.34 144.602 184.159 144.602Z" fill="#ACC6B9"/>
<path d="M184.159 157.747C169.633 157.747 157.857 169.517 157.857 184.038C157.857 198.559 169.633 210.33 184.159 210.33C198.685 210.33 210.461 198.559 210.461 184.038C210.461 169.517 198.686 157.747 184.159 157.747Z" fill="#A6B5C8"/>
<path d="M65.8009 138.029C51.2749 138.029 39.499 149.799 39.499 164.32C39.499 178.841 51.2749 190.611 65.8009 190.611C80.3269 190.611 92.1028 178.841 92.1028 164.32C92.1028 149.799 80.3277 138.029 65.8009 138.029Z" fill="#A6B5C8"/>
<path d="M302.518 138.029C287.992 138.029 276.216 149.799 276.216 164.32C276.216 178.841 287.992 190.611 302.518 190.611C317.044 190.611 328.82 178.841 328.82 164.32C328.82 149.799 317.045 138.029 302.518 138.029Z" fill="#A6B5C8"/>
<path d="M167.056 107.415C159.213 102.617 150.908 101.906 148.509 105.826C146.109 109.746 150.522 116.813 158.366 121.611C166.209 126.409 174.513 127.121 176.913 123.201C179.313 119.281 174.9 112.214 167.056 107.415Z" fill="black"/>
<path d="M219.737 105.847C217.338 101.927 209.034 102.638 201.191 107.435C193.347 112.232 188.934 119.298 191.334 123.218C193.733 127.139 202.037 126.428 209.88 121.631C217.723 116.834 222.136 109.767 219.737 105.847Z" fill="black"/>
<path d="M180.485 58.705C177.686 47.1927 167.377 38.6152 154.998 38.6152C140.472 38.6152 128.696 50.3855 128.696 64.9064C128.696 74.4625 133.847 82.7467 141.475 87.3493C147.821 71.4883 162.743 60.1379 180.485 58.705Z" fill="#DCE7F6"/>
<path d="M181.299 64.9065C181.299 62.7589 180.971 60.7032 180.485 58.7051C162.743 60.1379 147.821 71.4875 141.475 87.3493C145.438 89.7402 150.031 91.1969 154.998 91.1969C169.524 91.1977 181.299 79.4267 181.299 64.9065Z" fill="#ACC6B9"/>
<path d="M181.299 64.9065C181.299 62.7589 180.971 60.7032 180.485 58.7051C162.743 60.1379 147.821 71.4875 141.475 87.3493C145.438 89.7402 150.031 91.1969 154.998 91.1969C169.524 91.1977 181.299 79.4267 181.299 64.9065Z" fill="#C5D8D0"/>
<path d="M184.159 170.893C191.41 170.893 197.31 176.79 197.31 184.038C197.31 191.287 191.41 197.184 184.159 197.184C176.908 197.184 171.008 191.287 171.008 184.038C171.008 176.79 176.908 170.893 184.159 170.893Z" fill="#5886C5"/>
<path d="M65.8008 151.174C73.0519 151.174 78.9518 157.072 78.9518 164.32C78.9518 171.568 73.0519 177.465 65.8008 177.465C58.5497 177.465 52.6499 171.568 52.6499 164.32C52.6499 157.072 58.5497 151.174 65.8008 151.174Z" fill="#EE6058"/>
<path d="M302.518 151.174C309.769 151.174 315.669 157.072 315.669 164.32C315.669 171.568 309.769 177.465 302.518 177.465C295.267 177.465 289.367 171.568 289.367 164.32C289.367 157.072 295.267 151.174 302.518 151.174Z" fill="#EB7A25"/>
<path d="M187.5 478C234.444 478 272.5 459.868 272.5 437.5C272.5 415.132 234.444 397 187.5 397C140.556 397 102.5 415.132 102.5 437.5C102.5 459.868 140.556 478 187.5 478Z" fill="#C7E4C7"/>
</svg>
